<?xml version="1.0" encoding="utf-8"?>
<!-- Generator: Adobe Illustrator 22.0.0, SVG Export Plug-In . SVG Version: 6.00 Build 0)  -->
<svg version="1.1" id="Default" xmlns="http://www.w3.org/2000/svg" xmlns:xlink="http://www.w3.org/1999/xlink" x="0px" y="0px"
	 viewBox="0 0 1190.6 1683.4" style="enable-background:new 0 0 1190.6 1683.4;" xml:space="preserve">
<style type="text/css">
	.st0{fill:none;stroke:#000000;stroke-linecap:round;stroke-linejoin:round;}
	.st1{fill:#FF0000;}
	.st2{fill:none;}
	.st3{font-family:'FuturaPRO-Book';}
	.st4{font-size:48px;}
	.st5{font-size:40px;}
	.st6{fill:none;stroke:#231F20;stroke-miterlimit:10;}
</style>
<path class="st0" d="M1074.4,1213.8c0,66.9,0,133.9,0,200.8c-0.9,2.1-2.3,3.7-4.1,4.8c-1.9,1.1-4.1,1.4-6.4,1.1
	c-57.9-33.4-115.8-66.9-173.8-100.3C951.6,1284.7,1013,1249.2,1074.4,1213.8z"/>
<path class="st0" d="M438.9,1313.5c-61.4-35.5-122.8-70.9-184.3-106.4c0,66.9,0,133.9,0,200.8c-0.9,2.1-2.3,3.7-4.1,4.8
	c-1.9,1.1-4.1,1.4-6.4,1.1c-57.9-33.4-115.8-66.9-173.8-100.3c0,70.9,0,141.8,0,212.8c61.4,35.5,122.8,70.9,184.3,106.4
	c61.4-35.5,122.8-70.9,184.3-106.4C438.9,1455.3,438.9,1384.4,438.9,1313.5z"/>
<polygon class="st0" points="674.7,1209.6 490.5,1316 490.5,1528.7 674.7,1635.1 859,1528.7 859,1316 "/>
<polygon class="st0" points="980.3,494.2 1149.2,591.8 1149.2,786.9 980.3,884.5 811.3,786.9 811.3,591.8 796,583 796,795.7 
	980.3,902.1 1164.5,795.7 1164.5,583 980.3,476.6 "/>
<polygon class="st0" points="792.8,165.9 961.8,263.5 961.8,458.6 792.8,556.2 623.8,458.6 623.8,263.5 608.6,254.7 608.6,467.4 
	792.8,573.8 977.1,467.4 977.1,254.7 792.8,148.3 "/>
<polygon class="st0" points="597.5,496.9 766.5,594.4 766.5,789.5 597.5,887.1 428.5,789.5 428.5,594.4 413.2,585.6 413.2,798.4 
	597.5,904.7 781.7,798.4 781.7,585.6 597.5,479.2 "/>
<polygon class="st0" points="410.4,165.6 579.4,263.1 579.4,458.2 410.4,555.8 241.5,458.2 241.5,263.1 226.2,254.3 226.2,467.1 
	410.4,573.4 594.7,467.1 594.7,254.3 410.4,147.9 "/>
<polygon class="st0" points="210.3,496.9 379.3,594.4 379.3,789.5 210.3,887.1 41.3,789.5 41.3,594.4 26,585.6 26,798.4 
	210.3,904.7 394.5,798.4 394.5,585.6 210.3,479.2 "/>
<polygon class="st0" points="283.1,987.1 495.8,987.1 487,1002.3 291.9,1002.3 "/>
<polygon class="st0" points="283.1,1081.2 495.8,1081.2 487,1096.4 291.9,1096.4 "/>
<polygon class="st0" points="283.1,957.8 495.8,957.8 487,973.1 291.9,973.1 "/>
<polygon class="st0" points="283.1,1050.1 495.8,1050.1 487,1065.4 291.9,1065.4 "/>
<polygon class="st0" points="283.1,1020.8 495.8,1020.8 487,1036.1 291.9,1036.1 "/>
<rect x="749.5" y="1061.2" class="st0" width="36.9" height="36.9"/>
<rect x="845.8" y="1061.2" class="st0" width="36.9" height="36.9"/>
<rect x="796.6" y="1061.2" class="st0" width="36.9" height="36.9"/>
<circle class="st1" cx="864.3" cy="1079.6" r="7.2"/>
<rect x="749.5" y="1000.9" class="st0" width="36.9" height="36.9"/>
<rect x="845.8" y="1000.9" class="st0" width="36.9" height="36.9"/>
<rect x="796.6" y="1000.9" class="st0" width="36.9" height="36.9"/>
<circle class="st1" cx="864.3" cy="1019.3" r="7.2"/>
<rect x="702.4" y="1060.8" class="st0" width="36.9" height="36.9"/>
<rect x="702.4" y="1000.5" class="st0" width="36.9" height="36.9"/>
<rect x="655.6" y="1060.8" class="st0" width="36.9" height="36.9"/>
<rect x="655.6" y="1000.5" class="st0" width="36.9" height="36.9"/>
<rect x="1090.4" y="20.7" class="st2" width="90.2" height="57"/>
<text transform="matrix(1 0 0 1 1090.3876 60.3276)" class="st3 st4">A2</text>
<rect x="34" y="20.7" class="st2" width="1040.4" height="51.3"/>
<text transform="matrix(1 0 0 1 34.0268 60.3276)" class="st3 st4">Découpe CNC</text>
<rect x="34" y="77.7" class="st2" width="326" height="48.3"/>
<text transform="matrix(1 0 0 1 34.0268 110.728)" class="st3 st5">Epaisseur 4-6 mm</text>
<rect x="34" y="1121.9" class="st2" width="422" height="48.3"/>
<text transform="matrix(1 0 0 1 34.0268 1154.8522)" class="st3 st5">Epaisseur 3mm min.</text>
</svg>
