<?xml version="1.0" encoding="utf-8"?>
<!-- Generator: Adobe Illustrator 22.0.0, SVG Export Plug-In . SVG Version: 6.00 Build 0)  -->
<svg version="1.1" id="Layer_1" xmlns="http://www.w3.org/2000/svg" xmlns:xlink="http://www.w3.org/1999/xlink" x="0px" y="0px"
	 viewBox="0 0 500 500" style="enable-background:new 0 0 500 500;" xml:space="preserve">
<style type="text/css">
	.st0{fill:#171717;}
	.st1{fill:#171717;stroke:#FFFFFF;stroke-miterlimit:10;}
	.st2{fill:#999999;}
	.st3{fill:#4054A4;}
	.st4{fill:#83C44C;}
	.st5{fill:#F3EA11;}
	.st6{fill:#AD529F;}
	.st7{fill:#FAA41A;}
	.st8{fill:#D31E4A;}
	.st9{fill:#D9E7A6;}
	.st10{fill:#82D2E2;}
	.st11{fill:none;stroke:#000000;}
	.st12{fill:none;stroke:#000000;stroke-miterlimit:10;}
</style>
<g>
	<path class="st11" d="M375.9,184.7h43.9v223.6h-22.2V206.6h-35.1L375.9,184.7z"/>
</g>
<rect x="43.3" y="43" class="st12" width="413.3" height="413.3"/>
<g>
	<path d="M83.6,396.6c1.6,0,3,0.6,4.1,1.7c1.1,1.1,1.7,2.5,1.7,4.1c0,1.6-0.6,3-1.7,4.1c-1.1,1.1-2.5,1.7-4.1,1.7
		c-1.6,0-3-0.6-4.1-1.7s-1.7-2.5-1.7-4.1c0-1.6,0.6-3,1.7-4.1S82,396.6,83.6,396.6z"/>
	<path d="M105.3,334.5c1.5,0,2.8,0.5,3.9,1.6c1.1,1.1,1.6,2.4,1.6,3.9c0,1.5-0.5,2.8-1.6,3.8c-1.1,1.1-2.3,1.6-3.9,1.6
		c-1.5,0-2.7-0.5-3.8-1.6c-1.1-1.1-1.6-2.3-1.6-3.8c0-1.5,0.5-2.8,1.6-3.9C102.6,335.1,103.9,334.5,105.3,334.5z M102.1,355.7h6.6
		V407h-6.6V355.7z"/>
	<path d="M122.4,355.7h6.6v9.2c2.6-3.5,5.6-6.2,8.8-7.9c3.2-1.7,6.7-2.6,10.5-2.6c3.8,0,7.2,1,10.2,2.9c3,1.9,5.2,4.6,6.6,7.9
		s2.1,8.4,2.1,15.4V407h-6.6v-24.5c0-5.9-0.2-9.9-0.7-11.8c-0.8-3.4-2.2-5.9-4.4-7.7c-2.2-1.7-5-2.6-8.5-2.6c-4,0-7.6,1.3-10.7,4
		c-3.2,2.6-5.2,5.9-6.2,9.8c-0.6,2.5-0.9,7.2-0.9,14V407h-6.6V355.7z"/>
	<path d="M205.6,354.4c7.9,0,14.5,2.9,19.7,8.6c4.7,5.2,7.1,11.4,7.1,18.5c0,7.2-2.5,13.4-7.5,18.8c-5,5.4-11.4,8-19.3,8
		c-7.9,0-14.3-2.7-19.3-8c-5-5.4-7.5-11.6-7.5-18.8c0-7.1,2.4-13.3,7.1-18.5C191.1,357.2,197.6,354.4,205.6,354.4z M205.6,360.8
		c-5.5,0-10.2,2-14.2,6.1c-3.9,4.1-5.9,9-5.9,14.7c0,3.7,0.9,7.2,2.7,10.4c1.8,3.2,4.2,5.7,7.3,7.4c3.1,1.7,6.4,2.6,10.1,2.6
		c3.7,0,7-0.9,10.1-2.6c3.1-1.7,5.5-4.2,7.3-7.4s2.7-6.7,2.7-10.4c0-5.8-2-10.7-5.9-14.7C215.7,362.8,211,360.8,205.6,360.8z"/>
</g>
</svg>
