<?xml version="1.0" encoding="utf-8"?>
<!-- Generator: Adobe Illustrator 22.0.0, SVG Export Plug-In . SVG Version: 6.00 Build 0)  -->
<svg version="1.1" id="Layer_1" xmlns="http://www.w3.org/2000/svg" xmlns:xlink="http://www.w3.org/1999/xlink" x="0px" y="0px"
	 viewBox="0 0 500 500" style="enable-background:new 0 0 500 500;" xml:space="preserve">
<style type="text/css">
	.st0{fill:#171717;}
	.st1{fill:#171717;stroke:#FFFFFF;stroke-miterlimit:10;}
	.st2{fill:#999999;}
	.st3{fill:#4054A4;}
	.st4{fill:#83C44C;}
	.st5{fill:#F3EA11;}
	.st6{fill:#AD529F;}
	.st7{fill:#FAA41A;}
	.st8{fill:#D31E4A;}
	.st9{fill:#D9E7A6;}
	.st10{fill:#82D2E2;}
	.st11{fill:none;stroke:#000000;}
	.st12{fill:none;stroke:#000000;stroke-miterlimit:10;}
</style>
<g>
	<path class="st12" d="M418.8,326.7L364.7,385h92V275.5c-1,2.5-2.2,4.9-3.5,7.4C447.3,293.7,435.8,308.3,418.8,326.7z"/>
	<path class="st12" d="M317.3,406l83.1-89.8c16.8-18,27.8-31.4,32.9-40.2c5.1-8.7,7.6-17.9,7.6-27.6c0-12.2-4.6-22.8-13.7-31.6
		c-9.1-8.8-20.3-13.2-33.5-13.2c-13.9,0-25.4,4.6-34.7,13.9c-9.2,9.3-14.5,22.3-15.7,39h-20.8c0.6-21.4,7.8-39,21.5-52.8
		c13.7-13.8,30.7-20.6,50.9-20.6c20,0,36.2,6.5,48.5,19.4c5.7,6,10.1,12.5,13.2,19.5V43H43.3v413.3h413.3V406H317.3z"/>
</g>
<g>
	<path d="M75.2,394.6c1.6,0,3,0.6,4.1,1.7c1.1,1.1,1.7,2.5,1.7,4.1c0,1.6-0.6,3-1.7,4.1c-1.1,1.1-2.5,1.7-4.1,1.7
		c-1.6,0-3-0.6-4.1-1.7s-1.7-2.5-1.7-4.1c0-1.6,0.6-3,1.7-4.1C72.3,395.2,73.6,394.6,75.2,394.6z"/>
	<path d="M145.8,353.7V405h-6.5v-8.8c-2.8,3.4-5.9,5.9-9.3,7.6c-3.4,1.7-7.2,2.5-11.3,2.5c-7.3,0-13.5-2.6-18.6-7.9
		c-5.1-5.3-7.7-11.7-7.7-19.2c0-7.4,2.6-13.7,7.8-19c5.2-5.3,11.4-7.9,18.7-7.9c4.2,0,8,0.9,11.4,2.7s6.4,4.5,9,8.1v-9.4H145.8z
		 M119.5,358.7c-3.7,0-7.1,0.9-10.2,2.7c-3.1,1.8-5.6,4.3-7.4,7.6s-2.8,6.7-2.8,10.4c0,3.6,0.9,7.1,2.8,10.4
		c1.9,3.3,4.3,5.9,7.5,7.7c3.1,1.8,6.5,2.8,10.1,2.8c3.6,0,7-0.9,10.3-2.7c3.2-1.8,5.7-4.3,7.5-7.4c1.7-3.1,2.6-6.6,2.6-10.5
		c0-5.9-2-10.9-5.9-14.9C130,360.7,125.2,358.7,119.5,358.7z"/>
	<path d="M160.8,353.7h6.6v9.4c2.6-3.6,5.6-6.3,9-8.1c3.4-1.8,7.2-2.7,11.4-2.7c7.3,0,13.5,2.6,18.7,7.9c5.2,5.3,7.8,11.6,7.8,19
		c0,7.5-2.6,14-7.7,19.2c-5.1,5.3-11.3,7.9-18.6,7.9c-4.1,0-7.8-0.8-11.3-2.5c-3.4-1.7-6.5-4.2-9.3-7.6v27.6h-6.6V353.7z
		 M187.2,358.7c-5.7,0-10.5,2-14.4,6c-3.9,4-5.9,9-5.9,14.9c0,3.9,0.9,7.4,2.6,10.5c1.7,3.1,4.2,5.6,7.5,7.4
		c3.2,1.8,6.7,2.7,10.3,2.7c3.5,0,6.9-0.9,10-2.8c3.1-1.8,5.6-4.4,7.5-7.7c1.8-3.3,2.8-6.8,2.8-10.4c0-3.6-0.9-7.1-2.8-10.4
		c-1.8-3.3-4.3-5.8-7.4-7.6C194.3,359.6,190.9,358.7,187.2,358.7z"/>
	<path d="M226.5,333.9h6.6v40.5l23.8-20.7h9.7l-28.2,24.5l29.9,26.8H259l-25.8-23.1V405h-6.6V333.9z"/>
</g>
</svg>
