<?xml version="1.0" encoding="utf-8"?>
<!-- Generator: Adobe Illustrator 22.0.0, SVG Export Plug-In . SVG Version: 6.00 Build 0)  -->
<svg version="1.1" id="Layer_1" xmlns="http://www.w3.org/2000/svg" xmlns:xlink="http://www.w3.org/1999/xlink" x="0px" y="0px"
	 viewBox="0 0 500 500" style="enable-background:new 0 0 500 500;" xml:space="preserve">
<style type="text/css">
	.st0{fill:#171717;}
	.st1{fill:#171717;stroke:#FFFFFF;stroke-miterlimit:10;}
	.st2{fill:#999999;}
	.st3{fill:#4054A4;}
	.st4{fill:#83C44C;}
	.st5{fill:#F3EA11;}
	.st6{fill:#AD529F;}
	.st7{fill:#FAA41A;}
	.st8{fill:#D31E4A;}
	.st9{fill:#D9E7A6;}
	.st10{fill:#82D2E2;}
	.st11{fill:none;stroke:#000000;}
	.st12{fill:none;stroke:#000000;stroke-miterlimit:10;}
</style>
<g>
	<path d="M78.7,394.3c1.6,0,3,0.6,4.1,1.7s1.7,2.5,1.7,4.1c0,1.6-0.6,3-1.7,4.1c-1.1,1.1-2.5,1.7-4.1,1.7c-1.6,0-3-0.6-4.1-1.7
		c-1.1-1.1-1.7-2.5-1.7-4.1c0-1.6,0.6-3,1.7-4.1C75.7,394.9,77.1,394.3,78.7,394.3z"/>
	<path d="M149.3,353.4v51.3h-6.5v-8.8c-2.8,3.4-5.9,5.9-9.3,7.6c-3.4,1.7-7.2,2.5-11.3,2.5c-7.3,0-13.5-2.6-18.6-7.9
		c-5.1-5.3-7.7-11.7-7.7-19.2c0-7.4,2.6-13.7,7.8-19c5.2-5.3,11.4-7.9,18.7-7.9c4.2,0,8,0.9,11.4,2.7s6.4,4.5,9,8.1v-9.4H149.3z
		 M122.9,358.4c-3.7,0-7.1,0.9-10.2,2.7c-3.1,1.8-5.6,4.3-7.4,7.6c-1.8,3.3-2.8,6.7-2.8,10.4c0,3.6,0.9,7.1,2.8,10.4
		c1.9,3.3,4.3,5.9,7.5,7.7c3.1,1.8,6.5,2.8,10.1,2.8c3.6,0,7-0.9,10.3-2.7s5.7-4.3,7.5-7.4c1.7-3.1,2.6-6.6,2.6-10.5
		c0-5.9-2-10.9-5.9-14.9C133.4,360.4,128.6,358.4,122.9,358.4z"/>
	<path d="M166.4,332.3c1.5,0,2.8,0.5,3.9,1.6c1.1,1.1,1.6,2.4,1.6,3.9c0,1.5-0.5,2.8-1.6,3.8c-1.1,1.1-2.3,1.6-3.9,1.6
		c-1.5,0-2.7-0.5-3.8-1.6c-1.1-1.1-1.6-2.3-1.6-3.8c0-1.5,0.5-2.8,1.6-3.9C163.7,332.8,164.9,332.3,166.4,332.3z M163.1,353.4h6.6
		v51.3h-6.6V353.4z"/>
	<path d="M234.6,353.4v51.3h-6.5v-8.8c-2.8,3.4-5.9,5.9-9.3,7.6c-3.4,1.7-7.2,2.5-11.3,2.5c-7.3,0-13.5-2.6-18.6-7.9
		c-5.1-5.3-7.7-11.7-7.7-19.2c0-7.4,2.6-13.7,7.8-19c5.2-5.3,11.4-7.9,18.7-7.9c4.2,0,8,0.9,11.4,2.7s6.4,4.5,9,8.1v-9.4H234.6z
		 M208.2,358.4c-3.7,0-7.1,0.9-10.2,2.7c-3.1,1.8-5.6,4.3-7.4,7.6c-1.8,3.3-2.8,6.7-2.8,10.4c0,3.6,0.9,7.1,2.8,10.4
		c1.9,3.3,4.3,5.9,7.5,7.7c3.1,1.8,6.5,2.8,10.1,2.8c3.6,0,7-0.9,10.3-2.7c3.2-1.8,5.7-4.3,7.5-7.4c1.7-3.1,2.6-6.6,2.6-10.5
		c0-5.9-2-10.9-5.9-14.9C218.7,360.4,213.9,358.4,208.2,358.4z"/>
</g>
<path class="st12" d="M452.2,370.5c-6.3,10.8-14.9,19.2-25.8,25.1c-10.9,5.9-23.1,8.9-36.5,8.9c-18.2,0-33.3-5.2-45.4-15.7
	c-12.1-10.5-20.1-25.8-23.8-46.1h20.6c3.6,13.7,8.8,23.5,15.6,29.7c8.7,7.7,19.8,11.6,33.2,11.6c15.3,0,27.6-4.6,36.8-13.8
	c9.3-9.2,13.9-19.9,13.9-32.2c0-8.2-2.3-15.9-7-23.1c-4.6-7.2-10.8-12.6-18.6-16.2c-7.8-3.6-19.8-5.9-36.2-6.7v-19.3
	c9.6,0,18.4-1.7,26.4-5.1c7.9-3.4,13.7-7.7,17.3-13c3.6-5.3,5.4-11,5.4-17.2c0-9.2-3.7-17.1-11-23.8c-7.3-6.7-16.6-10-27.7-10
	c-9.1,0-16.9,2.6-23.5,7.7c-6.6,5.1-12.2,13.8-16.8,26h-21.5c3.9-17.4,11.4-30.8,22.5-40.1s24.2-14,39.3-14c11,0,21.2,2.5,30.7,7.5
	c9.5,5,16.9,11.8,22.1,20.3c5.2,8.5,7.8,17.4,7.8,26.7c0,18.2-9,32.5-27.1,43.1c10.1,4.1,18.4,10.1,24.9,18.1
	c3.7,4.5,6.6,9.1,8.8,14V43H43.3v413.3h413.3v-94.9C455.4,364.5,453.9,367.5,452.2,370.5z"/>
</svg>
