<?xml version="1.0" encoding="utf-8"?>
<!-- Generator: Adobe Illustrator 22.0.0, SVG Export Plug-In . SVG Version: 6.00 Build 0)  -->
<svg version="1.1" id="Default" xmlns="http://www.w3.org/2000/svg" xmlns:xlink="http://www.w3.org/1999/xlink" x="0px" y="0px"
	 viewBox="0 0 1190.6 1056.4" style="enable-background:new 0 0 1190.6 1056.4;" xml:space="preserve">
<style type="text/css">
	.st0{fill:none;stroke:#000000;stroke-linecap:round;stroke-linejoin:round;}
	.st1{fill:#FF0000;}
	.st2{fill:none;stroke:#231F20;stroke-miterlimit:10;}
	.st3{fill:none;}
	.st4{font-family:'FuturaPRO-Book';}
	.st5{font-size:48px;}
</style>
<rect x="134.7" y="32.5" class="st0" width="36.9" height="36.9"/>
<rect x="53.3" y="39.1" class="st3" width="1040.4" height="51.3"/>
<text transform="matrix(1 0 0 1 53.3416 78.6931)" class="st4 st5">Modèle 3D</text>
<line class="st0" x1="400.4" y1="557.4" x2="400.3" y2="555.2"/>
<line class="st0" x1="813.2" y1="757.1" x2="821.9" y2="702.7"/>
<line class="st0" x1="821.9" y1="702.7" x2="1075.3" y2="818.4"/>
<line class="st0" x1="1075.3" y1="818.4" x2="1059" y2="871.7"/>
<line class="st0" x1="303.2" y1="426.5" x2="304" y2="433"/>
<line class="st0" x1="1075.3" y1="818.4" x2="1057.8" y2="826.9"/>
<line class="st0" x1="1057.8" y1="826.9" x2="1042" y2="880.1"/>
<line class="st0" x1="1042" y1="880.1" x2="814.5" y2="773.4"/>
<line class="st0" x1="1057.8" y1="826.9" x2="823.3" y2="719.2"/>
<line class="st0" x1="823.3" y1="719.2" x2="814.5" y2="773.4"/>
<line class="st0" x1="124.4" y1="346.8" x2="303.2" y2="426.5"/>
<line class="st0" x1="823.3" y1="719.2" x2="821.9" y2="702.7"/>
<line class="st0" x1="812.2" y1="763.4" x2="830.1" y2="991.1"/>
<line class="st0" x1="830.1" y1="991.1" x2="1057.1" y2="877.9"/>
<line class="st0" x1="124.4" y1="346.8" x2="125.6" y2="353.3"/>
<line class="st0" x1="812.2" y1="763.4" x2="813.2" y2="757.1"/>
<line class="st0" x1="814.5" y1="773.4" x2="831.2" y2="985"/>
<line class="st0" x1="831.2" y1="985" x2="830.1" y2="991.1"/>
<line class="st0" x1="831.2" y1="985" x2="1042" y2="880.1"/>
<line class="st0" x1="1059" y1="871.7" x2="1057.1" y2="877.9"/>
<line class="st0" x1="155.6" y1="208.1" x2="124.4" y2="346.8"/>
<line class="st0" x1="342.9" y1="147.7" x2="155.6" y2="208.1"/>
<line class="st0" x1="342.9" y1="147.7" x2="343.5" y2="154.2"/>
<line class="st0" x1="335.9" y1="693.9" x2="550.1" y2="799.5"/>
<line class="st0" x1="550.1" y1="799.5" x2="771.7" y2="702.7"/>
<line class="st0" x1="324.3" y1="278.4" x2="342.9" y2="147.7"/>
<line class="st0" x1="512.7" y1="214.1" x2="324.3" y2="278.4"/>
<line class="st0" x1="512.8" y1="220.6" x2="512.7" y2="214.1"/>
<line class="st0" x1="748" y1="507.4" x2="562.3" y2="428.4"/>
<line class="st0" x1="504.6" y1="360" x2="512.8" y2="220.6"/>
<line class="st0" x1="304" y1="433" x2="504.6" y2="360"/>
<line class="st0" x1="125.6" y1="353.3" x2="304" y2="433"/>
<line class="st0" x1="325.9" y1="277.9" x2="343.5" y2="154.2"/>
<line class="st0" x1="335.2" y1="687.4" x2="335.9" y2="693.9"/>
<line class="st0" x1="372.3" y1="513.7" x2="561.8" y2="441.5"/>
<line class="st0" x1="550.1" y1="793.1" x2="550.1" y2="799.5"/>
<line class="st0" x1="750.9" y1="617.4" x2="751.7" y2="636"/>
<line class="st0" x1="772.4" y1="696.3" x2="771.7" y2="702.7"/>
<line class="st0" x1="756.2" y1="562" x2="759.4" y2="632.7"/>
<line class="st0" x1="751.8" y1="465" x2="754.7" y2="530.3"/>
<line class="st0" x1="756.2" y1="562" x2="756" y2="564.3"/>
<line class="st0" x1="756.2" y1="562" x2="712.4" y2="561.2"/>
<line class="st0" x1="712.4" y1="561.2" x2="712.2" y2="563.4"/>
<line class="st0" x1="746.8" y1="520.7" x2="751.8" y2="465"/>
<line class="st0" x1="712.4" y1="561.2" x2="711.5" y2="529.5"/>
<line class="st0" x1="711.5" y1="529.5" x2="711.4" y2="531.8"/>
<line class="st0" x1="504.4" y1="353.5" x2="512.7" y2="214.1"/>
<line class="st0" x1="711.5" y1="529.5" x2="754.7" y2="530.3"/>
<line class="st0" x1="746.8" y1="520.7" x2="747.2" y2="530.1"/>
<line class="st0" x1="348.8" y1="624.6" x2="356.8" y2="554.3"/>
<line class="st0" x1="359.6" y1="629.8" x2="361.8" y2="609.8"/>
<line class="st0" x1="371.3" y1="523" x2="372.3" y2="513.7"/>
<path class="st0" d="M725.3,546.1c2.3-6.6,15.5-5.5,16.7,1.4"/>
<line class="st0" x1="367.7" y1="457.9" x2="372.3" y2="513.7"/>
<path class="st0" d="M742.2,545.8c-0.2-4.2-5.1-6.2-8.5-6.3c-3.6-0.1-8.6,1.6-8.5,6c0.2,4.2,5.1,6.2,8.5,6.3
	C737.3,552,742.4,550.2,742.2,545.8z"/>
<line class="st0" x1="360.3" y1="522.8" x2="367.7" y2="457.9"/>
<line class="st0" x1="750.9" y1="617.4" x2="708.3" y2="616.6"/>
<line class="st0" x1="756" y1="564.3" x2="750.9" y2="617.4"/>
<line class="st0" x1="712.2" y1="563.4" x2="708.3" y2="616.6"/>
<line class="st0" x1="708.3" y1="616.6" x2="707.5" y2="585"/>
<line class="st0" x1="711.4" y1="531.8" x2="707.5" y2="585"/>
<line class="st0" x1="768.8" y1="458.2" x2="751.8" y2="465"/>
<line class="st0" x1="778.4" y1="641.2" x2="768.8" y2="458.2"/>
<line class="st0" x1="404.2" y1="610.6" x2="361.8" y2="609.8"/>
<line class="st0" x1="404.2" y1="610.6" x2="400.4" y2="557.4"/>
<line class="st0" x1="778.4" y1="641.2" x2="772.4" y2="696.3"/>
<line class="st0" x1="361.8" y1="609.8" x2="357" y2="556.6"/>
<line class="st0" x1="550" y1="738.8" x2="778.4" y2="641.2"/>
<line class="st0" x1="550" y1="738.8" x2="550.1" y2="793.1"/>
<line class="st0" x1="504.4" y1="353.5" x2="504.6" y2="360"/>
<line class="st0" x1="403.5" y1="525.9" x2="407.1" y2="579.2"/>
<line class="st0" x1="407.1" y1="579.2" x2="404.2" y2="610.6"/>
<line class="st0" x1="329.3" y1="632.3" x2="550" y2="738.8"/>
<line class="st0" x1="303.2" y1="426.5" x2="504.4" y2="353.5"/>
<line class="st0" x1="400.3" y1="555.2" x2="356.8" y2="554.3"/>
<line class="st0" x1="357" y1="556.6" x2="356.8" y2="554.3"/>
<line class="st0" x1="329.3" y1="632.3" x2="335.2" y2="687.4"/>
<line class="st0" x1="360.3" y1="522.8" x2="403.3" y2="523.6"/>
<line class="st0" x1="403.3" y1="523.6" x2="403.5" y2="525.9"/>
<line class="st0" x1="403.3" y1="523.6" x2="400.3" y2="555.2"/>
<line class="st0" x1="351.3" y1="450.5" x2="329.3" y2="632.3"/>
<line class="st0" x1="562.5" y1="372.5" x2="351.3" y2="450.5"/>
<path class="st0" d="M372,540.7c1.2-6.8,14.4-7.8,16.6-1.3"/>
<line class="st0" x1="562.5" y1="372.5" x2="562.3" y2="428.4"/>
<line class="st0" x1="562" y1="385.7" x2="562.5" y2="372.5"/>
<path class="st0" d="M388.6,539c0.5-4.5-4.5-6.3-8.1-6.3c-3.4,0-8.4,1.9-8.8,6c-0.5,4.5,4.5,6.3,8.1,6.3
	C383.3,545,388.2,543.2,388.6,539z"/>
<line class="st0" x1="561.8" y1="441.5" x2="562.3" y2="428.4"/>
<line class="st0" x1="759.4" y1="632.7" x2="550.6" y2="721.3"/>
<line class="st0" x1="562" y1="385.7" x2="561.8" y2="441.5"/>
<line class="st0" x1="367.7" y1="457.9" x2="562" y2="385.7"/>
<line class="st0" x1="550.6" y1="721.3" x2="348.8" y2="624.6"/>
</svg>
