<?xml version="1.0" encoding="utf-8"?>
<!-- Generator: Adobe Illustrator 22.0.0, SVG Export Plug-In . SVG Version: 6.00 Build 0)  -->
<svg version="1.1" id="Default" xmlns="http://www.w3.org/2000/svg" xmlns:xlink="http://www.w3.org/1999/xlink" x="0px" y="0px"
	 viewBox="0 0 1190.6 1683.4" style="enable-background:new 0 0 1190.6 1683.4;" xml:space="preserve">
<style type="text/css">
	.st0{fill:none;stroke:#000000;stroke-linecap:round;stroke-linejoin:round;}
	.st1{fill:#FF0000;}
	.st2{fill:none;}
	.st3{font-family:'FuturaPRO-Book';}
	.st4{font-size:48px;}
	.st5{font-size:40px;}
	.st6{fill:none;stroke:#231F20;stroke-miterlimit:10;}
</style>
<rect class="st0" width="1190.6" height="1683.8"/>
<polygon class="st0" points="775.1,153.9 944.1,251.4 944.1,446.5 775.1,544.1 606.1,446.5 606.1,251.4 590.9,242.6 590.9,455.4 
	775.1,561.7 959.4,455.4 959.4,242.6 775.1,136.2 "/>
<polygon class="st0" points="587.4,480.7 756.4,578.2 756.4,773.4 587.4,870.9 418.5,773.4 418.5,578.2 403.2,569.4 403.2,782.2 
	587.4,888.6 771.7,782.2 771.7,569.4 587.4,463 "/>
<polygon class="st0" points="963.2,480.3 1132.2,577.9 1132.2,773 963.2,870.6 794.2,773 794.2,577.9 779,569.1 779,781.8 
	963.2,888.2 1147.5,781.8 1147.5,569.1 963.2,462.7 "/>
<polygon class="st0" points="393.1,154.2 562,251.7 562,446.8 393.1,544.4 224.1,446.8 224.1,251.7 208.8,242.9 208.8,455.7 
	393.1,562 577.3,455.7 577.3,242.9 393.1,136.5 "/>
<polygon class="st0" points="204.9,480.9 373.9,578.4 373.9,773.6 204.9,871.1 35.9,773.6 35.9,578.4 20.6,569.6 20.6,782.4 
	204.9,888.7 389.2,782.4 389.2,569.6 204.9,463.2 "/>
<path class="st0" d="M916.3,1320.1c61.4-35.5,122.8-70.9,184.3-106.4c0,63.2,0,147.2,0,212.8"/>
<path class="st0" d="M1100.5,1426.5c-61.4-35.5-122.8-70.9-184.3-106.4"/>
<path class="st0" d="M96.5,1313.5c0,70.9,0,141.8,0,212.8c61.4,35.5,122.8,70.9,184.3,106.4c61.4-35.5,122.8-70.9,184.3-106.4
	c0-70.9,0-141.8,0-212.8c-61.4-35.5-122.8-70.9-184.3-106.4c0,63.1,0,147.2,0,212.8"/>
<path class="st0" d="M280.7,1419.9c-61.4-35.5-122.8-70.9-184.3-106.4"/>
<polygon class="st0" points="700.9,1209.6 516.6,1316 516.6,1528.7 700.9,1635.1 885.1,1528.7 885.1,1316 "/>
<polygon class="st0" points="283.6,949.6 496.3,949.6 487.5,964.9 292.4,964.9 "/>
<polygon class="st0" points="283.6,1043.7 496.3,1043.7 487.5,1059 292.4,1059 "/>
<polygon class="st0" points="283.6,920.3 496.3,920.3 487.5,935.6 292.4,935.6 "/>
<polygon class="st0" points="283.6,1012.7 496.3,1012.7 487.5,1027.9 292.4,1027.9 "/>
<polygon class="st0" points="283.6,983.4 496.3,983.4 487.5,998.6 292.4,998.6 "/>
<rect x="750" y="1023.7" class="st0" width="36.9" height="36.9"/>
<rect x="846.3" y="1023.7" class="st0" width="36.9" height="36.9"/>
<rect x="797.1" y="1023.7" class="st0" width="36.9" height="36.9"/>
<circle class="st1" cx="864.8" cy="1042.2" r="7.2"/>
<rect x="750" y="963.4" class="st0" width="36.9" height="36.9"/>
<rect x="846.3" y="963.4" class="st0" width="36.9" height="36.9"/>
<rect x="797.1" y="963.4" class="st0" width="36.9" height="36.9"/>
<circle class="st1" cx="864.8" cy="981.9" r="7.2"/>
<rect x="702.9" y="1023.3" class="st0" width="36.9" height="36.9"/>
<rect x="702.9" y="963" class="st0" width="36.9" height="36.9"/>
<rect x="656.1" y="1023.3" class="st0" width="36.9" height="36.9"/>
<rect x="656.1" y="963" class="st0" width="36.9" height="36.9"/>
<rect x="30.7" y="20.7" class="st2" width="582" height="51.3"/>
<text transform="matrix(1 0 0 1 30.6938 60.3275)" class="st3 st4">Découpe laser</text>
<rect x="37.5" y="77.7" class="st2" width="394.5" height="48.3"/>
<text transform="matrix(1 0 0 1 37.4709 110.7279)" class="st3 st5">Epaisseur 5mm. min.</text>
</svg>
