<?xml version="1.0" encoding="utf-8"?>
<!-- Generator: Adobe Illustrator 22.0.0, SVG Export Plug-In . SVG Version: 6.00 Build 0)  -->
<svg version="1.1" id="Layer_1" xmlns="http://www.w3.org/2000/svg" xmlns:xlink="http://www.w3.org/1999/xlink" x="0px" y="0px"
	 viewBox="0 0 464.8 391.9" style="enable-background:new 0 0 464.8 391.9;" xml:space="preserve">
<style type="text/css">
	.st0{fill:#872222;}
	.st1{font-family:'FuturaPRO-Medium';}
	.st2{font-size:12.54px;}
	.st3{fill:#2F2F88;}
	.st4{font-size:12.491px;}
	.st5{fill:none;stroke:#000000;stroke-miterlimit:10;}
</style>
<text transform="matrix(1 0 0 1 341.4238 194.5967)" class="st0 st1 st2">Module Bluetooth</text>
<text transform="matrix(1 0 0 1 281.2324 291.7798)" class="st0 st1 st2">Batterie</text>
<text transform="matrix(1 0 0 1 60.4766 62.2471)" class="st0 st1 st2">Arduino</text>
<text transform="matrix(1 0 0 1 169.4697 341.7319)" class="st3 st1 st2">USB</text>
<text transform="matrix(1 0 0 1 131.4326 174.5039)" class="st3 st1 st2">Port 21</text>
<text transform="matrix(1 0 0 1 131.4326 129.7778)" class="st3 st1 st2">Port 23</text>
<text transform="matrix(1 0 0 1 301.7217 98.0137)" class="st3 st1 st2">Entrée RGB</text>
<text transform="matrix(1.0039 0 0 1 310.9648 225.0688)" class="st3 st1 st4">Entrée R4</text>
<text transform="matrix(1 0 0 1 30.6426 283.1079)" class="st3 st1 st2">Mini-USB</text>
<text transform="matrix(1 0 0 1 350.2031 70.9224)" class="st0 st1 st2">Module LED</text>
<rect x="37.6" y="77.6" class="st5" width="85.3" height="189.4"/>
<rect x="367.5" y="87.7" class="st5" width="30.7" height="30.7"/>
<rect x="367.5" y="210.6" class="st5" width="37.5" height="37.5"/>
<rect x="198.5" y="306.2" class="st5" width="206.5" height="40.1"/>
<path class="st5" d="M374.2,103c0,0-76.4,0-109.1,0s1.7,33.5-38,33.5s-119.7,0-119.7,0"/>
<path class="st5" d="M374.2,229.3c0,0-76.4,0-109.1,0s1.7-69.4-38-69.4s-119.7,0-119.7,0"/>
<circle class="st5" cx="107.4" cy="159.9" r="2.9"/>
<circle class="st5" cx="107.4" cy="171.6" r="2.9"/>
<circle class="st5" cx="107.4" cy="136.5" r="2.9"/>
<circle class="st5" cx="107.4" cy="148.2" r="2.9"/>
<circle class="st5" cx="374" cy="103" r="2.9"/>
<circle class="st5" cx="107.4" cy="206.6" r="2.9"/>
<circle class="st5" cx="107.4" cy="218.3" r="2.9"/>
<circle class="st5" cx="107.4" cy="183.3" r="2.9"/>
<circle class="st5" cx="107.4" cy="194.9" r="2.9"/>
<circle class="st5" cx="374.2" cy="229" r="2.9"/>
<path class="st5" d="M85.8,273.6c0,0,0,26.7,0,33.9s-2,18.7,17.4,18.7s88,0,88,0"/>
</svg>
