<?xml version="1.0" encoding="utf-8"?>
<!-- Generator: Adobe Illustrator 22.0.0, SVG Export Plug-In . SVG Version: 6.00 Build 0)  -->
<svg version="1.1" id="Layer_1" xmlns="http://www.w3.org/2000/svg" xmlns:xlink="http://www.w3.org/1999/xlink" x="0px" y="0px"
	 viewBox="0 0 595.3 841.9" style="enable-background:new 0 0 595.3 841.9;" xml:space="preserve">
<style type="text/css">
	.st0{font-family:'FuturaPRO-Medium';}
	.st1{font-size:12px;}
	.st2{fill:#872222;}
	.st3{font-size:13.2px;}
	.st4{fill:#2F2F88;}
	.st5{font-size:13.1484px;}
	.st6{font-family:'FuturaPRO-Book';}
	.st7{font-size:24px;}
	.st8{fill:none;stroke:#000000;stroke-miterlimit:10;}
</style>
<text transform="matrix(1 0 0 1 41.0158 133.8956)" class="st0 st1">Plan de montage électronique:</text>
<text transform="matrix(1 0 0 1 423.5168 379.4758)" class="st2 st0 st3">Module Bluetooth</text>
<text transform="matrix(1 0 0 1 360.1574 481.7746)" class="st2 st0 st3">Batterie</text>
<text transform="matrix(1 0 0 1 127.7824 240.1603)" class="st2 st0 st3">Arduino</text>
<text transform="matrix(1 0 0 1 242.5119 534.3557)" class="st4 st0 st3">USB</text>
<text transform="matrix(1 0 0 1 202.4728 358.3254)" class="st4 st0 st3">Port 21</text>
<text transform="matrix(1 0 0 1 202.4728 311.2453)" class="st4 st0 st3">Port 23</text>
<text transform="matrix(1 0 0 1 381.7248 277.8098)" class="st4 st0 st3">Entrée RGB</text>
<text transform="matrix(1.0039 0 0 1 391.4543 411.5519)" class="st4 st0 st5">Entrée R4</text>
<text transform="matrix(1 0 0 1 96.3781 472.6457)" class="st4 st0 st3">Mini-USB</text>
<text transform="matrix(1 0 0 1 432.758 249.2922)" class="st2 st0 st3">Module LED</text>
<text transform="matrix(1 0 0 1 263.0778 61.465)" class="st6 st7">MOOD</text>
<rect x="103.7" y="256.4" class="st8" width="89.8" height="199.3"/>
<rect x="451" y="266.9" class="st8" width="32.3" height="32.3"/>
<rect x="451" y="396.3" class="st8" width="39.4" height="39.4"/>
<rect x="273" y="497" class="st8" width="217.4" height="42.2"/>
<path class="st8" d="M458,283.1c0,0-80.5,0-114.8,0s1.8,35.3-40,35.3s-126,0-126,0"/>
<path class="st8" d="M458,416c0,0-80.5,0-114.8,0s1.8-73-40-73s-126,0-126,0"/>
<circle class="st8" cx="177.1" cy="343" r="3.1"/>
<circle class="st8" cx="177.1" cy="355.2" r="3.1"/>
<circle class="st8" cx="177.1" cy="318.4" r="3.1"/>
<circle class="st8" cx="177.1" cy="330.7" r="3.1"/>
<circle class="st8" cx="457.8" cy="283.1" r="3.1"/>
<circle class="st8" cx="177.1" cy="392.1" r="3.1"/>
<circle class="st8" cx="177.1" cy="404.4" r="3.1"/>
<circle class="st8" cx="177.1" cy="367.5" r="3.1"/>
<circle class="st8" cx="177.1" cy="379.8" r="3.1"/>
<circle class="st8" cx="458" cy="415.7" r="3.1"/>
<path class="st8" d="M154.5,462.6c0,0,0,28.1,0,35.7c0,7.6-2.1,19.7,18.3,19.7s92.6,0,92.6,0"/>
</svg>
