<?xml version="1.0" encoding="utf-8"?>
<!-- Generator: Adobe Illustrator 22.0.0, SVG Export Plug-In . SVG Version: 6.00 Build 0)  -->
<svg version="1.1" id="Layer_1" xmlns="http://www.w3.org/2000/svg" xmlns:xlink="http://www.w3.org/1999/xlink" x="0px" y="0px"
	 viewBox="0 0 500 500" style="enable-background:new 0 0 500 500;" xml:space="preserve">
<style type="text/css">
	.st0{fill:#171717;}
	.st1{fill:#171717;stroke:#FFFFFF;stroke-miterlimit:10;}
	.st2{fill:#999999;}
	.st3{fill:#4054A4;}
	.st4{fill:#83C44C;}
	.st5{fill:#F3EA11;}
	.st6{fill:#AD529F;}
	.st7{fill:#FAA41A;}
	.st8{fill:#D31E4A;}
	.st9{fill:#D9E7A6;}
	.st10{fill:#82D2E2;}
</style>
<polygon class="st0" points="353.5,71.1 250,250.5 146.5,71.1 42.9,250.5 146.5,429.8 353.5,429.8 457.1,250.5 "/>
<polyline class="st1" points="457.1,250.5 250,250.5 353.5,429.8 "/>
<polyline class="st1" points="146.5,429.8 250,250.5 42.9,250.5 "/>
<path class="st2" d="M423.5,84.5"/>
<path class="st3" d="M248-35.5l8.1-14.1c-1.4-5.7-6.6-10-12.8-10c-2.9,0-5.6,1-7.8,2.6L248-35.5z"/>
<path class="st4" d="M267.8-208.7c0-2.1-0.2-4.1-0.5-6.1h-74.1c-0.3,2-0.5,4-0.5,6.1c0,20.7,16.8,37.6,37.6,37.6
	C251-171.1,267.8-187.9,267.8-208.7z"/>
<ellipse transform="matrix(0.9732 -0.2298 0.2298 0.9732 37.6372 58.7913)" class="st5" cx="271.3" cy="-132.2" rx="27.9" ry="27.9"/>
<path class="st6" d="M205.3-163c-10.4,0-19.1,7.5-20.9,17.4l13.8,23.9c2.2,0.8,4.6,1.2,7.1,1.2c11.7,0,21.3-9.5,21.3-21.3
	S217-163,205.3-163z"/>
<path class="st7" d="M227.4-121.9c-9.6,0-17.7,6.1-20.8,14.6l16.8,29.1c1.3,0.2,2.6,0.4,4,0.4c12.2,0,22.1-9.9,22.1-22.1
	S239.6-121.9,227.4-121.9z"/>
<path class="st8" d="M267.8-95.4c-8.8,0-15.9,7.1-15.9,15.9c0,7.6,5.4,14,12.6,15.5l15.1-26.1C276.6-93.4,272.5-95.4,267.8-95.4z"/>
<path class="st9" d="M335.7-189.4c0-10.9-6-20.5-14.9-25.5h-28.7c-8.9,5-14.9,14.5-14.9,25.5c0,16.1,13.1,29.2,29.2,29.2
	c6.1,0,11.7-1.9,16.4-5l12.7-22C335.6-187.9,335.7-188.6,335.7-189.4z"/>
<path class="st10" d="M161.9-214.3c-5.3,3-8.2,8.6-8.2,14.3l8,13.9c4.9,2.9,11.2,3.2,16.5,0.1c7.8-4.5,10.5-14.5,6-22.3
	c-1.7-2.9-4.2-5.2-7-6.5l-14.2,0C162.6-214.7,162.2-214.5,161.9-214.3z"/>
</svg>
